<svg version="1.1" xmlns="http://www.w3.org/2000/svg" xmlns:xlink="http://www.w3.org/1999/xlink" width="556" height="749"><defs/><g><g transform="translate(-198,-30) scale(1,1)"><rect fill="#ffffff" stroke="none" x="344" y="40" width="136" height="185"/></g><g transform="translate(-198,-30) scale(1,1)"><path fill="none" stroke="#000000" d="M 344 40 L 480 40 L 480 225 L 344 225 L 344 40 Z Z" stroke-miterlimit="10"/></g><g transform="translate(-198,-30) scale(1,1)"><path fill="none" stroke="#000000" d="M 344 65 L 480 65" stroke-miterlimit="10"/></g><g transform="translate(-198,-30) scale(1,1)"><path fill="none" stroke="#000000" d="M 344 178 L 480 178" stroke-miterlimit="10"/></g><g transform="translate(-198,-30) scale(1,1)"><g><path fill="none" stroke="none"/><text fill="#000000" stroke="none" font-family="Arial" font-size="13px" font-style="normal" font-weight="bold" text-decoration="none" x="391.5" y="59.5">Record</text></g></g><g transform="translate(-198,-30) scale(1,1)"><g><path fill="none" stroke="none"/><text fill="#000000" stroke="none" font-family="Arial" font-size="13px" font-style="normal" font-weight="normal" text-decoration="none" x="349" y="82.5">vars</text></g></g><g transform="translate(-198,-30) scale(1,1)"><g><path fill="none" stroke="none"/><text fill="#000000" stroke="none" font-family="Arial" font-size="13px" font-style="normal" font-weight="normal" text-decoration="none" x="349" y="97.5">string name</text></g></g><g transform="translate(-198,-30) scale(1,1)"><g><path fill="none" stroke="none"/><text fill="#000000" stroke="none" font-family="Arial" font-size="13px" font-style="normal" font-weight="normal" text-decoration="none" x="349" y="112.5">char sex</text></g></g><g transform="translate(-198,-30) scale(1,1)"><g><path fill="none" stroke="none"/><text fill="#000000" stroke="none" font-family="Arial" font-size="13px" font-style="normal" font-weight="normal" text-decoration="none" x="349" y="127.5">string ID</text></g></g><g transform="translate(-198,-30) scale(1,1)"><g><path fill="none" stroke="none"/><text fill="#000000" stroke="none" font-family="Arial" font-size="13px" font-style="normal" font-weight="normal" text-decoration="none" x="349" y="142.5">string birthday</text></g></g><g transform="translate(-198,-30) scale(1,1)"><g><path fill="none" stroke="none"/><text fill="#000000" stroke="none" font-family="Arial" font-size="13px" font-style="normal" font-weight="normal" text-decoration="none" x="349" y="157.5">string address</text></g></g><g transform="translate(-198,-30) scale(1,1)"><g><path fill="none" stroke="none"/><text fill="#000000" stroke="none" font-family="Arial" font-size="13px" font-style="normal" font-weight="normal" text-decoration="none" x="349" y="172.5">unsigned short age</text></g></g><g transform="translate(-198,-30) scale(1,1)"><g><path fill="none" stroke="none"/><text fill="#000000" stroke="none" font-family="Arial" font-size="13px" font-style="normal" font-weight="normal" text-decoration="none" x="349" y="195.5">Record()</text></g></g><g transform="translate(-198,-30) scale(1,1)"><rect fill="#ffffff" stroke="none" x="208" y="320" width="123" height="185"/></g><g transform="translate(-198,-30) scale(1,1)"><path fill="none" stroke="#000000" d="M 208 320 L 331 320 L 331 505 L 208 505 L 208 320 Z Z" stroke-miterlimit="10"/></g><g transform="translate(-198,-30) scale(1,1)"><path fill="none" stroke="#000000" d="M 208 345 L 331 345" stroke-miterlimit="10"/></g><g transform="translate(-198,-30) scale(1,1)"><path fill="none" stroke="#000000" d="M 208 413 L 331 413" stroke-miterlimit="10"/></g><g transform="translate(-198,-30) scale(1,1)"><g><path fill="none" stroke="none"/><text fill="#000000" stroke="none" font-family="Arial" font-size="13px" font-style="normal" font-weight="bold" text-decoration="none" x="247" y="339.5">Student</text></g></g><g transform="translate(-198,-30) scale(1,1)"><g><path fill="none" stroke="none"/><text fill="#000000" stroke="none" font-family="Arial" font-size="13px" font-style="normal" font-weight="normal" text-decoration="none" x="213" y="362.5">string number</text></g></g><g transform="translate(-198,-30) scale(1,1)"><g><path fill="none" stroke="none"/><text fill="#000000" stroke="none" font-family="Arial" font-size="13px" font-style="normal" font-weight="normal" text-decoration="none" x="213" y="377.5">string dormitory</text></g></g><g transform="translate(-198,-30) scale(1,1)"><g><path fill="none" stroke="none"/><text fill="#000000" stroke="none" font-family="Arial" font-size="13px" font-style="normal" font-weight="normal" text-decoration="none" x="213" y="392.5">string major</text></g></g><g transform="translate(-198,-30) scale(1,1)"><g><path fill="none" stroke="none"/><text fill="#000000" stroke="none" font-family="Arial" font-size="13px" font-style="normal" font-weight="normal" text-decoration="none" x="213" y="407.5">unsigned short year</text></g></g><g transform="translate(-198,-30) scale(1,1)"><g><path fill="none" stroke="none"/><text fill="#000000" stroke="none" font-family="Arial" font-size="13px" font-style="normal" font-weight="normal" text-decoration="none" x="213" y="430.5">Student()</text></g></g><g transform="translate(-198,-30) scale(1,1)"><g><path fill="none" stroke="none"/><text fill="#000000" stroke="none" font-family="Arial" font-size="13px" font-style="normal" font-weight="normal" text-decoration="none" x="213" y="445.5">void add()</text></g></g><g transform="translate(-198,-30) scale(1,1)"><g><path fill="none" stroke="none"/><text fill="#000000" stroke="none" font-family="Arial" font-size="13px" font-style="normal" font-weight="normal" text-decoration="none" x="213" y="460.5">void print()</text></g></g><g transform="translate(-198,-30) scale(1,1)"><g><path fill="none" stroke="none"/><text fill="#000000" stroke="none" font-family="Arial" font-size="13px" font-style="normal" font-weight="normal" text-decoration="none" x="213" y="475.5">void change()</text></g></g><g transform="translate(-198,-30) scale(1,1)"><g><path fill="none" stroke="none"/><text fill="#000000" stroke="none" font-family="Arial" font-size="13px" font-style="normal" font-weight="normal" text-decoration="none" x="213" y="490.5">void lookup()</text></g></g><g transform="translate(-198,-30) scale(1,1)"><path fill="none" stroke="#000000" d="M 316 319 L 364 226" stroke-miterlimit="10"/></g><g transform="translate(-198,-30) scale(1,1)"><path fill="#FFFFFF" stroke="none" d="M 362.1592511297171 247.92285664772163 L 364 226 L 347.19659339277695 240.20019458994605"/></g><g transform="translate(-198,-30) scale(1,1)"><path fill="none" stroke="#000000" d="M 362.1592511297171 247.92285664772163 L 364 226 L 347.19659339277695 240.20019458994605 L 362.1592511297171 247.92285664772163" stroke-miterlimit="10"/></g><g transform="translate(-198,-30) scale(1,1)"><rect fill="#ffffff" stroke="none" x="464" y="320" width="159" height="140"/></g><g transform="translate(-198,-30) scale(1,1)"><path fill="none" stroke="#000000" d="M 464 320 L 623 320 L 623 460 L 464 460 L 464 320 Z Z" stroke-miterlimit="10"/></g><g transform="translate(-198,-30) scale(1,1)"><path fill="none" stroke="#000000" d="M 464 345 L 623 345" stroke-miterlimit="10"/></g><g transform="translate(-198,-30) scale(1,1)"><path fill="none" stroke="#000000" d="M 464 413 L 623 413" stroke-miterlimit="10"/></g><g transform="translate(-198,-30) scale(1,1)"><g><path fill="none" stroke="none"/><text fill="#000000" stroke="none" font-family="Arial" font-size="13px" font-style="normal" font-weight="bold" text-decoration="none" x="529.5" y="339.5">Staff</text></g></g><g transform="translate(-198,-30) scale(1,1)"><g><path fill="none" stroke="none"/><text fill="#000000" stroke="none" font-family="Arial" font-size="13px" font-style="normal" font-weight="normal" text-decoration="none" x="469" y="362.5">string worker_number</text></g></g><g transform="translate(-198,-30) scale(1,1)"><g><path fill="none" stroke="none"/><text fill="#000000" stroke="none" font-family="Arial" font-size="13px" font-style="normal" font-weight="normal" text-decoration="none" x="469" y="377.5">string appartment</text></g></g><g transform="translate(-198,-30) scale(1,1)"><g><path fill="none" stroke="none"/><text fill="#000000" stroke="none" font-family="Arial" font-size="13px" font-style="normal" font-weight="normal" text-decoration="none" x="469" y="392.5">unsigned short dailyHours</text></g></g><g transform="translate(-198,-30) scale(1,1)"><g><path fill="none" stroke="none"/><text fill="#000000" stroke="none" font-family="Arial" font-size="13px" font-style="normal" font-weight="normal" text-decoration="none" x="469" y="407.5">unsigned salary</text></g></g><g transform="translate(-198,-30) scale(1,1)"><g><path fill="none" stroke="none"/><text fill="#000000" stroke="none" font-family="Arial" font-size="13px" font-style="normal" font-weight="normal" text-decoration="none" x="469" y="430.5">Staff()</text></g></g><g transform="translate(-198,-30) scale(1,1)"><g><path fill="none" stroke="none"/><text fill="#000000" stroke="none" font-family="Arial" font-size="13px" font-style="normal" font-weight="normal" text-decoration="none" x="469" y="445.5">void add()</text></g></g><g transform="translate(-198,-30) scale(1,1)"><path fill="none" stroke="#000000" d="M 507 319 L 460 226" stroke-miterlimit="10"/></g><g transform="translate(-198,-30) scale(1,1)"><path fill="#FFFFFF" stroke="none" d="M 476.6816979147972 240.34297579581903 L 460 226 L 461.65372626964046 247.93775716487676"/></g><g transform="translate(-198,-30) scale(1,1)"><path fill="none" stroke="#000000" d="M 476.6816979147972 240.34297579581903 L 460 226 L 461.65372626964046 247.93775716487676 L 476.6816979147972 240.34297579581903" stroke-miterlimit="10"/></g><g transform="translate(-198,-30) scale(1,1)"><rect fill="#ffffff" stroke="none" x="280" y="584" width="196" height="185"/></g><g transform="translate(-198,-30) scale(1,1)"><path fill="none" stroke="#000000" d="M 280 584 L 476 584 L 476 769 L 280 769 L 280 584 Z Z" stroke-miterlimit="10"/></g><g transform="translate(-198,-30) scale(1,1)"><path fill="none" stroke="#000000" d="M 280 609 L 476 609" stroke-miterlimit="10"/></g><g transform="translate(-198,-30) scale(1,1)"><path fill="none" stroke="#000000" d="M 280 662 L 476 662" stroke-miterlimit="10"/></g><g transform="translate(-198,-30) scale(1,1)"><g><path fill="none" stroke="none"/><text fill="#000000" stroke="none" font-family="Arial" font-size="13px" font-style="normal" font-weight="bold" text-decoration="none" x="350" y="603.5">Professor</text></g></g><g transform="translate(-198,-30) scale(1,1)"><g><path fill="none" stroke="none"/><text fill="#000000" stroke="none" font-family="Arial" font-size="13px" font-style="normal" font-weight="normal" text-decoration="none" x="285" y="626.5">string fieldOfTeaching</text></g></g><g transform="translate(-198,-30) scale(1,1)"><g><path fill="none" stroke="none"/><text fill="#000000" stroke="none" font-family="Arial" font-size="13px" font-style="normal" font-weight="normal" text-decoration="none" x="285" y="641.5">string research</text></g></g><g transform="translate(-198,-30) scale(1,1)"><g><path fill="none" stroke="none"/><text fill="#000000" stroke="none" font-family="Arial" font-size="13px" font-style="normal" font-weight="normal" text-decoration="none" x="285" y="656.5">unsigned short numOfPostgrads</text></g></g><g transform="translate(-198,-30) scale(1,1)"><g><path fill="none" stroke="none"/><text fill="#000000" stroke="none" font-family="Arial" font-size="13px" font-style="normal" font-weight="normal" text-decoration="none" x="285" y="679.5">Professor()</text></g></g><g transform="translate(-198,-30) scale(1,1)"><g><path fill="none" stroke="none"/><text fill="#000000" stroke="none" font-family="Arial" font-size="13px" font-style="normal" font-weight="normal" text-decoration="none" x="285" y="694.5">void print()</text></g></g><g transform="translate(-198,-30) scale(1,1)"><g><path fill="none" stroke="none"/><text fill="#000000" stroke="none" font-family="Arial" font-size="13px" font-style="normal" font-weight="normal" text-decoration="none" x="285" y="709.5">void change()</text></g></g><g transform="translate(-198,-30) scale(1,1)"><g><path fill="none" stroke="none"/><text fill="#000000" stroke="none" font-family="Arial" font-size="13px" font-style="normal" font-weight="normal" text-decoration="none" x="285" y="724.5">void lookup()</text></g></g><g transform="translate(-198,-30) scale(1,1)"><path fill="none" stroke="#000000" d="M 432 583 L 502 461" stroke-miterlimit="10"/></g><g transform="translate(-198,-30) scale(1,1)"><path fill="#FFFFFF" stroke="none" d="M 499.1870858628123 482.81942973720464 L 502 461 L 484.58230260989825 474.43963606749986"/></g><g transform="translate(-198,-30) scale(1,1)"><path fill="none" stroke="#000000" d="M 499.1870858628123 482.81942973720464 L 502 461 L 484.58230260989825 474.43963606749986 L 499.1870858628123 482.81942973720464" stroke-miterlimit="10"/></g><g transform="translate(-198,-30) scale(1,1)"><rect fill="#ffffff" stroke="none" x="624" y="584" width="120" height="125"/></g><g transform="translate(-198,-30) scale(1,1)"><path fill="none" stroke="#000000" d="M 624 584 L 744 584 L 744 709 L 624 709 L 624 584 Z Z" stroke-miterlimit="10"/></g><g transform="translate(-198,-30) scale(1,1)"><path fill="none" stroke="#000000" d="M 624 609 L 744 609" stroke-miterlimit="10"/></g><g transform="translate(-198,-30) scale(1,1)"><path fill="none" stroke="#000000" d="M 624 632 L 744 632" stroke-miterlimit="10"/></g><g transform="translate(-198,-30) scale(1,1)"><g><path fill="none" stroke="none"/><text fill="#000000" stroke="none" font-family="Arial" font-size="13px" font-style="normal" font-weight="bold" text-decoration="none" x="663.5" y="603.5">Worker</text></g></g><g transform="translate(-198,-30) scale(1,1)"><g><path fill="none" stroke="none"/><text fill="#000000" stroke="none" font-family="Arial" font-size="13px" font-style="normal" font-weight="normal" text-decoration="none" x="629" y="626.5">string job</text></g></g><g transform="translate(-198,-30) scale(1,1)"><g><path fill="none" stroke="none"/><text fill="#000000" stroke="none" font-family="Arial" font-size="13px" font-style="normal" font-weight="normal" text-decoration="none" x="629" y="649.5">void print()</text></g></g><g transform="translate(-198,-30) scale(1,1)"><g><path fill="none" stroke="none"/><text fill="#000000" stroke="none" font-family="Arial" font-size="13px" font-style="normal" font-weight="normal" text-decoration="none" x="629" y="664.5">void change()</text></g></g><g transform="translate(-198,-30) scale(1,1)"><g><path fill="none" stroke="none"/><text fill="#000000" stroke="none" font-family="Arial" font-size="13px" font-style="normal" font-weight="normal" text-decoration="none" x="629" y="679.5">void lookup()</text></g></g><g transform="translate(-198,-30) scale(1,1)"><g><path fill="none" stroke="none"/><text fill="#000000" stroke="none" font-family="Arial" font-size="13px" font-style="normal" font-weight="normal" text-decoration="none" x="629" y="694.5">Worker()</text></g></g><g transform="translate(-198,-30) scale(1,1)"><path fill="none" stroke="#000000" d="M 649 583 L 582 461" stroke-miterlimit="10"/></g><g transform="translate(-198,-30) scale(1,1)"><path fill="#FFFFFF" stroke="none" d="M 599.1633992847927 474.76291121059705 L 582 461 L 584.4045081766077 482.86820386837076"/></g><g transform="translate(-198,-30) scale(1,1)"><path fill="none" stroke="#000000" d="M 599.1633992847927 474.76291121059705 L 582 461 L 584.4045081766077 482.86820386837076 L 599.1633992847927 474.76291121059705" stroke-miterlimit="10"/></g></g></svg>